<?xml version="1.0" encoding="utf-8"?>
<!-- Generator: Adobe Illustrator 27.0.0, SVG Export Plug-In . SVG Version: 6.00 Build 0)  -->
<svg version="1.1" id="Layer_1" xmlns="http://www.w3.org/2000/svg" xmlns:xlink="http://www.w3.org/1999/xlink" x="0px" y="0px"
	 viewBox="0 0 128 128" style="enable-background:new 0 0 128 128;" xml:space="preserve">
<style type="text/css">
	.st0{fill:#CE5D3E;}
	.st1{fill:#DFE5EF;}
	.st2{fill:#192441;}
</style>
<path class="st0" d="M109.71,15.01H18.29c-6.36,0-11.57,6.54-11.57,14.53v7.21h114.56v-7.21C121.28,21.55,116.07,15.01,109.71,15.01
	z"/>
<path class="st1" d="M6.72,94.06c0,7.97,6.52,14.49,14.49,14.49h85.58c7.97,0,14.49-6.52,14.49-14.49v-57.3H6.72V94.06z"/>
<polygon class="st0" points="28.53,39.01 17.86,56.86 25.79,55.08 21.98,69.62 35.24,48.74 28.79,50.62 "/>
<polygon class="st2" points="26.55,71.5 15.88,89.35 23.8,87.57 19.99,102.11 33.26,81.23 26.8,83.11 "/>
<polygon class="st2" points="62.74,39.01 52.07,56.86 59.99,55.08 56.18,69.62 69.44,48.74 62.99,50.62 "/>
<polygon class="st0" points="60.76,71.5 50.09,89.35 58.01,87.57 54.2,102.11 67.46,81.23 61.01,83.11 "/>
<polygon class="st0" points="99.33,39.01 88.66,56.86 96.59,55.08 92.78,69.62 106.04,48.74 99.59,50.62 "/>
<polygon class="st2" points="97.35,71.5 86.68,89.35 94.61,87.57 90.8,102.11 104.06,81.23 97.61,83.11 "/>
</svg>
