<?xml version="1.0" encoding="utf-8"?>
<!-- Generator: Adobe Illustrator 27.0.0, SVG Export Plug-In . SVG Version: 6.00 Build 0)  -->
<svg version="1.1" id="Layer_1" xmlns="http://www.w3.org/2000/svg" xmlns:xlink="http://www.w3.org/1999/xlink" x="0px" y="0px"
	 viewBox="0 0 128 128" style="enable-background:new 0 0 164 128;" xml:space="preserve">
<style type="text/css">
	.st0{fill:#ffffff;}
</style>
<path class="st0" d="M84.79,64.18l34.43-34.43c5.68-5.68,5.68-14.96,0-20.64c-5.68-5.68-14.96-5.68-20.64,0L64.15,43.54L29.72,9.11
	c-5.68-5.68-14.96-5.68-20.64,0c-5.68,5.68-5.68,14.96,0,20.64l34.43,34.43L9.08,98.61c-5.68,5.68-5.68,14.96,0,20.64v0
	c5.68,5.68,14.96,5.68,20.64,0l34.43-34.43l34.43,34.43c5.68,5.68,14.96,5.68,20.64,0v0c5.68-5.68,5.68-14.96,0-20.64L84.79,64.18z"
	/>
</svg>
