<?xml version="1.0" encoding="utf-8"?>
<!-- Generator: Adobe Illustrator 27.0.0, SVG Export Plug-In . SVG Version: 6.00 Build 0)  -->
<svg version="1.1" id="Layer_1" xmlns="http://www.w3.org/2000/svg" xmlns:xlink="http://www.w3.org/1999/xlink" x="0px" y="0px"
	 viewBox="0 0 128 128" style="enable-background:new 0 0 128 128;" xml:space="preserve">
<style type="text/css">
	.st0{fill:#FFFFFF;}
</style>
<g>
	<g>
		<path class="st0" d="M99.96,124.71H30.17c-5.01,0-9.08-4.07-9.08-9.08V15c0-5.01,4.07-9.08,9.08-9.08h69.79
			c5.01,0,9.08,4.07,9.08,9.08v100.63C109.04,120.64,104.96,124.71,99.96,124.71z M30.17,13.92c-0.6,0-1.08,0.49-1.08,1.08v100.63
			c0,0.6,0.49,1.08,1.08,1.08h69.79c0.6,0,1.08-0.49,1.08-1.08V15c0-0.6-0.49-1.08-1.08-1.08H30.17z"/>
	</g>
	<g>
		<g>
			<path class="st0" d="M37.1,34.99c-3.56,0-6.47-2.87-6.5-6.44c-0.03-3.59,2.85-6.52,6.44-6.56l52.46-0.45c0.02,0,0.04,0,0.06,0
				c3.56,0,6.47,2.87,6.5,6.44c0.03,3.59-2.85,6.52-6.44,6.56l-52.46,0.45C37.13,34.99,37.11,34.99,37.1,34.99z"/>
		</g>
		<g>
			<path class="st0" d="M38.83,58.99c-3.56,0-6.47-2.87-6.5-6.44c-0.03-3.59,2.85-6.52,6.44-6.56l52.46-0.45c0.02,0,0.04,0,0.06,0
				c3.56,0,6.47,2.87,6.5,6.44c0.03,3.59-2.85,6.52-6.44,6.56l-52.46,0.45C38.87,58.99,38.85,58.99,38.83,58.99z"/>
		</g>
		<g>
			<path class="st0" d="M38.83,82.98c-3.56,0-6.47-2.87-6.5-6.44c-0.03-3.59,2.85-6.52,6.44-6.56l52.46-0.45c0.02,0,0.04,0,0.06,0
				c3.56,0,6.47,2.87,6.5,6.44c0.03,3.59-2.85,6.52-6.44,6.56l-52.46,0.45C38.87,82.98,38.85,82.98,38.83,82.98z"/>
		</g>
		<g>
			<path class="st0" d="M39.23,106.98c-3.56,0-6.47-2.87-6.5-6.44c-0.03-3.59,2.85-6.52,6.44-6.56l52.46-0.45c0.02,0,0.04,0,0.06,0
				c3.56,0,6.47,2.87,6.5,6.44c0.03,3.59-2.85,6.52-6.44,6.56l-52.46,0.45C39.27,106.98,39.25,106.98,39.23,106.98z"/>
		</g>
	</g>
	<g>
		<g>
			<polygon class="st0" points="45.56,89.96 35.6,82.12 38.79,73.48 100.7,0.72 114.9,11.3 52,86.51 			"/>
		</g>
		<g>
			<polygon class="st0" points="51.76,82.33 41.9,73.86 99.17,5.92 109.04,14.39 			"/>
		</g>
		<g>
			<g>
				<polygon class="st0" points="40.52,75.94 50.36,84.23 34.03,93.63 				"/>
			</g>
		</g>
	</g>
</g>
</svg>
