<?xml version="1.0" encoding="utf-8"?>
<!-- Generator: Adobe Illustrator 27.0.0, SVG Export Plug-In . SVG Version: 6.00 Build 0)  -->
<svg version="1.1" id="Layer_1" xmlns="http://www.w3.org/2000/svg" xmlns:xlink="http://www.w3.org/1999/xlink" x="0px" y="0px"
	 viewBox="0 0 128 128" style="enable-background:new 0 0 128 128;" xml:space="preserve">
<style type="text/css">
	.st0{fill:#FFFFFF;}
</style>
<g>
	<path class="st0" d="M107.83,117.18H43.04c-3.31,0-6-2.69-6-6s2.69-6,6-6h58.79v-77.1H43.04c-3.31,0-6-2.69-6-6s2.69-6,6-6h64.79
		c3.31,0,6,2.69,6,6v89.1C113.83,114.5,111.14,117.18,107.83,117.18z"/>
</g>
<path class="st0" d="M79.95,61.03h-42.5l4.18-7.04c1.69-2.85,0.75-6.53-2.1-8.22c-2.85-1.69-6.53-0.75-8.22,2.1l-9.52,16.06
	c0,0-0.01,0.01-0.01,0.01l-0.02,0.03c-0.01,0.02-0.02,0.04-0.03,0.05c-0.11,0.19-0.2,0.38-0.29,0.57c-0.03,0.06-0.06,0.13-0.08,0.19
	c-0.07,0.17-0.13,0.35-0.19,0.53c-0.01,0.05-0.03,0.1-0.05,0.15c-0.06,0.23-0.11,0.46-0.14,0.69c-0.01,0.05-0.01,0.1-0.02,0.15
	c-0.02,0.19-0.04,0.38-0.04,0.58c0,0.06,0,0.12,0,0.18c0,0.21,0.01,0.43,0.04,0.64c0,0.02,0,0.05,0.01,0.07
	c0.03,0.24,0.08,0.48,0.14,0.71c0.01,0.05,0.03,0.1,0.04,0.15c0.05,0.18,0.11,0.35,0.17,0.53c0.03,0.07,0.06,0.15,0.09,0.22
	c0.02,0.06,0.04,0.11,0.07,0.17l7.12,15.32c1.02,2.19,3.18,3.47,5.45,3.47c0.85,0,1.71-0.18,2.52-0.56c3.01-1.4,4.31-4.96,2.91-7.97
	l-3.15-6.79h43.63c3.31,0,6-2.69,6-6C85.95,63.71,83.26,61.03,79.95,61.03z"/>
</svg>
