<?xml version="1.0" encoding="utf-8"?>
<!-- Generator: Adobe Illustrator 27.0.0, SVG Export Plug-In . SVG Version: 6.00 Build 0)  -->
<svg version="1.1" id="Layer_1" xmlns="http://www.w3.org/2000/svg" xmlns:xlink="http://www.w3.org/1999/xlink" x="0px" y="0px"
	 viewBox="0 0 128 128" style="enable-background:new 0 0 128 128;" xml:space="preserve">
<style type="text/css">
	.st0{fill:#FFFFFF;}
</style>
<g>
	<path class="st0" d="M109.24,32.57l-76.67,76.67c-2.46,2.46-6.44,2.46-8.9,0l-4.91-4.91c-2.46-2.46-2.46-6.44,0-8.9l76.67-76.67
		c2.46-2.46,6.44-2.46,8.9,0l4.91,4.91C111.69,26.13,111.69,30.11,109.24,32.57z"/>
	<path class="st0" d="M95.43,109.24L18.76,32.57c-2.46-2.46-2.46-6.44,0-8.9l4.91-4.91c2.46-2.46,6.44-2.46,8.9,0l76.67,76.67
		c2.46,2.46,2.46,6.44,0,8.9l-4.91,4.91C101.87,111.69,97.89,111.69,95.43,109.24z"/>
</g>
</svg>
