<?xml version="1.0" encoding="utf-8"?>
<!-- Generator: Adobe Illustrator 27.0.0, SVG Export Plug-In . SVG Version: 6.00 Build 0)  -->
<svg version="1.1" id="Layer_1" xmlns="http://www.w3.org/2000/svg" xmlns:xlink="http://www.w3.org/1999/xlink" x="0px" y="0px"
	 viewBox="0 0 128 128" style="enable-background:new 0 0 128 128;" xml:space="preserve">
<style type="text/css">
	.st0{fill:#FFFFFF;}
</style>
<g>
	<path class="st0" d="M118.21,36.5H9.79c-3.48,0-6.29-2.82-6.29-6.29v-6.94c0-3.48,2.82-6.29,6.29-6.29h108.43
		c3.48,0,6.29,2.82,6.29,6.29v6.94C124.51,33.69,121.69,36.5,118.21,36.5z"/>
	<path class="st0" d="M118.21,73.76H9.79c-3.48,0-6.29-2.82-6.29-6.29v-6.94c0-3.48,2.82-6.29,6.29-6.29h108.43
		c3.48,0,6.29,2.82,6.29,6.29v6.94C124.51,70.94,121.69,73.76,118.21,73.76z"/>
	<path class="st0" d="M118.21,111.02H9.79c-3.48,0-6.29-2.82-6.29-6.29v-6.94c0-3.48,2.82-6.29,6.29-6.29h108.43
		c3.48,0,6.29,2.82,6.29,6.29v6.94C124.51,108.2,121.69,111.02,118.21,111.02z"/>
</g>
</svg>
