<?xml version="1.0" encoding="utf-8"?>
<!-- Generator: Adobe Illustrator 27.0.0, SVG Export Plug-In . SVG Version: 6.00 Build 0)  -->
<svg version="1.1" id="Layer_1" xmlns="http://www.w3.org/2000/svg" xmlns:xlink="http://www.w3.org/1999/xlink" x="0px" y="0px"
	 viewBox="0 0 48 48" style="enable-background:new 0 0 48 48;" xml:space="preserve">
<style type="text/css">
	.st0{fill:none;}
	.st1{fill:#FFFFFF;}
</style>
<path class="st0" d="M0,0h48v48H0V0z"/>
<path class="st1" d="M41.2,26.3c0.1-0.7,0.2-1.5,0.2-2.3s-0.1-1.5-0.2-2.3l4.9-3.8c0.4-0.3,0.6-1,0.3-1.5l-4.6-8
	c-0.3-0.5-0.9-0.7-1.4-0.5l-5.8,2.3c-1.2-0.9-2.5-1.7-3.9-2.3l-0.9-6.1c-0.1-0.5-0.6-1-1.2-1h-9.3c-0.6,0-1.1,0.4-1.1,1l-0.9,6.1
	c-1.4,0.6-2.7,1.4-3.9,2.3L7.6,7.9c-0.5-0.2-1.1,0-1.4,0.5l-4.6,8c-0.3,0.5-0.2,1.1,0.3,1.5l4.9,3.8c-0.1,0.7-0.2,1.5-0.2,2.3
	s0.1,1.5,0.2,2.3l-4.9,3.8c-0.4,0.3-0.6,1-0.3,1.5l4.6,8c0.3,0.5,0.9,0.7,1.4,0.5l5.8-2.3c1.2,0.9,2.5,1.7,3.9,2.3l0.9,6.1
	c0.1,0.5,0.6,1,1.1,1h9.3c0.6,0,1.1-0.4,1.1-1l0.9-6.1c1.4-0.6,2.7-1.4,3.9-2.3l5.8,2.3c0.5,0.2,1.1,0,1.4-0.5l4.6-8
	c0.3-0.5,0.2-1.1-0.3-1.5L41.2,26.3z M24,32.1c-4.5,0-8.1-3.6-8.1-8.1s3.6-8.1,8.1-8.1s8.1,3.6,8.1,8.1S28.5,32.1,24,32.1z"/>
</svg>
